<?xml version="1.0" encoding="UTF-8" standalone="no"?>
<!-- Created with Inkscape (http://www.inkscape.org/) -->

<svg
   version="1.1"
   id="svg1"
   width="192.228"
   height="192.228"
   viewBox="0 0 192.228 192.228"
   sodipodi:docname="PWB32icon-192x192.svg"
   inkscape:version="1.4.2 (1:1.4.2+202505120737+ebf0e940d0)"
   xmlns:inkscape="http://www.inkscape.org/namespaces/inkscape"
   xmlns:sodipodi="http://sodipodi.sourceforge.net/DTD/sodipodi-0.dtd"
   xmlns="http://www.w3.org/2000/svg"
   xmlns:svg="http://www.w3.org/2000/svg">
  <defs
     id="defs1" />
  <sodipodi:namedview
     id="namedview1"
     pagecolor="#ffffff"
     bordercolor="#000000"
     borderopacity="0.25"
     inkscape:showpageshadow="2"
     inkscape:pageopacity="0.0"
     inkscape:pagecheckerboard="0"
     inkscape:deskcolor="#d1d1d1"
     showgrid="false"
     inkscape:zoom="2.6510465"
     inkscape:cx="98.263082"
     inkscape:cy="75.253301"
     inkscape:window-width="1854"
     inkscape:window-height="1011"
     inkscape:window-x="66"
     inkscape:window-y="32"
     inkscape:window-maximized="1"
     inkscape:current-layer="g1" />
  <g
     inkscape:groupmode="layer"
     inkscape:label="Image"
     id="g1"
     transform="translate(-110.78218,-91.716887)">
    <rect
       style="fill:#ffffff;fill-opacity:1;stroke:#000000;stroke-width:0.167538;stroke-linecap:round;stroke-linejoin:round;stroke-dasharray:none;stroke-opacity:1"
       id="rect55"
       width="132.75656"
       height="149.93401"
       x="140.8981"
       y="106.68475" />
    <path
       style="fill:#6d59cf;fill-opacity:1;stroke:#000000;stroke-width:0.227999;stroke-dasharray:none;stroke-opacity:1"
       d="m 154.0024,283.39102 c -12.85911,-0.33698 -19.75932,-2.08187 -26.75665,-6.76603 -2.69328,-1.80293 -7.31065,-6.43928 -9.08841,-9.12576 -4.3601,-6.5888 -6.32898,-13.41788 -6.87365,-23.84134 -0.28694,-5.49106 -0.29056,-102.74825 -0.004,-110.04963 0.29993,-7.64469 0.87648,-11.39422 2.50686,-16.3031 3.97464,-11.96712 13.13905,-20.40438 25.49494,-23.472025 3.86901,-0.960576 7.54104,-1.385763 14.03934,-1.625633 7.56083,-0.279088 103.37591,-0.270839 109.33142,0.0094 9.14557,0.430369 14.614,1.657964 20.28807,4.55442 3.56225,1.818429 5.97435,3.589008 8.8864,6.522948 4.77204,4.80791 7.54697,9.79088 9.30368,16.70672 1.70445,6.7101 1.59401,2.03602 1.59401,67.46456 0,55.19243 -0.0236,58.7259 -0.41143,61.69539 -1.6337,12.5075 -6.87706,21.60172 -15.94911,27.6626 -6.85863,4.58215 -12.87534,6.15123 -25.22251,6.57775 -7.23426,0.24989 -97.54097,0.24122 -107.13884,-0.0103 z m 59.53421,-29.05504 c 3.3474,-0.31857 8.46052,-1.39112 11.86795,-2.48947 9.71761,-3.13234 18.09497,-8.23049 25.1843,-15.32621 4.73108,-4.73537 8.07749,-9.27123 11.00613,-14.91819 4.64736,-8.96099 6.79272,-17.21938 7.08566,-27.27574 0.30752,-10.55647 -1.66708,-19.82957 -6.16022,-28.92972 -2.05066,-4.15328 -3.84153,-6.96952 -7.47646,-11.75708 -0.11991,-0.15794 0.93361,-1.38106 2.87407,-3.33668 2.43737,-2.45647 3.12187,-3.28598 3.34968,-4.05931 0.51529,-1.74928 0.19453,-2.27113 -3.92515,-6.38586 -5.26749,-5.26114 -5.36419,-5.26411 -10.45089,-0.32098 l -3.27072,3.17841 -2.54092,-1.6624 c -7.05232,-4.614 -15.78945,-8.05305 -23.56691,-9.27625 -2.92804,-0.4605 -2.61314,-0.0632 -2.61314,-3.29676 v -2.83286 l 3.23802,-0.0786 c 3.09717,-0.0752 3.2912,-0.10826 4.46036,-0.75996 3.09935,-1.72762 4.22492,-5.45643 2.63457,-8.7279 -0.62918,-1.29429 -1.4374,-2.09488 -2.92152,-2.89396 l -0.93538,-0.50363 h -14.42909 -14.4291 l -0.93538,0.50363 c -1.43736,0.7739 -2.20479,1.51853 -2.93799,2.85068 -0.58656,1.06574 -0.67122,1.45031 -0.67122,3.04911 0,1.59879 0.0847,1.98336 0.67122,3.0491 0.73389,1.33341 1.50294,2.07908 2.93799,2.8487 0.7935,0.42555 1.41794,0.51929 4.1166,0.61797 l 3.18122,0.11634 0.0638,2.80149 c 0.0351,1.54082 0.0351,2.80204 0,2.80271 -0.51141,0.01 -5.92233,1.03501 -7.3048,1.38409 -4.2538,1.0741 -9.15239,2.90615 -13.01635,4.86805 -2.2195,1.12693 -6.54156,3.72504 -7.65273,4.60026 l -0.7111,0.5601 -3.31139,-3.28669 c -3.55717,-3.53064 -3.99682,-3.7898 -5.84438,-3.44506 -0.71088,0.13264 -1.46507,0.77121 -4.55023,3.85265 -4.08627,4.08135 -4.38369,4.56836 -3.9009,6.38764 0.20929,0.78863 0.82659,1.5542 3.27316,4.05931 l 3.01523,3.08736 -1.69246,2.28693 c -6.44988,8.71537 -10.09108,17.87111 -11.68713,29.38711 -0.45453,3.2796 -0.38461,12.41418 0.12341,16.12288 2.90563,21.21179 17.30678,40.00895 37.20674,48.56426 9.71043,4.17466 19.52502,5.64292 30.64545,4.58455 z m -9.54365,-10.52989 c -24.49787,-1.17178 -45.09391,-20.79098 -47.95487,-45.68046 -0.39793,-3.4618 -0.17246,-11.08415 0.42693,-14.43351 3.6816,-20.57241 19.85635,-37.00659 40.3702,-41.0177 17.42463,-3.40706 34.89921,2.01505 47.1688,14.63579 7.8761,8.10154 12.26437,17.24671 13.86636,28.89754 0.40243,2.92673 0.33124,10.36594 -0.12802,13.37857 -1.3903,9.1199 -4.53108,16.68279 -9.93475,23.92252 -7.83398,10.49581 -19.83877,17.72236 -33.02124,19.87791 -2.39509,0.39164 -7.34888,0.58411 -10.79341,0.41934 z"
       id="path38"
       sodipodi:nodetypes="ssssssssssssssssssssssssssssscssscsssscccsssssscssssscssssscsssssssssssssss" />
    <g
       id="g54"
       transform="matrix(0.22722979,0,0,0.22869341,87.098948,72.575944)"
       style="stroke-width:1.00017;stroke-dasharray:none">
      <path
         d="m 426.43135,426.40663 v 116.85352 c 0,64.26928 0.26048,117.16155 0.57767,117.53906 0.31721,0.37747 8.35212,0.56632 17.85535,0.41797 l 17.27768,-0.27149 v -117 -117 l -17.85535,-0.26953 z"
         style="fill:#ff9d00;fill-opacity:1;stroke:#000000;stroke-width:1.00017;stroke-dasharray:none;stroke-opacity:1"
         id="path42"
         sodipodi:nodetypes="csscccccc" />
      <path
         d="m 481.46784,360.51481 -0.21334,149.35282 -0.2117,149.35061 3.57271,0.34865 c 1.96578,0.19119 9.68554,0.449 17.15458,0.57373 11.13672,0.18598 13.66345,-0.0645 14.04304,-1.3946 0.60531,-99.40628 0.22494,-198.82198 0.10503,-298.23121 H 498.693 Z"
         style="fill:#b0b305;fill-opacity:1;stroke:#000000;stroke-width:1.00017;stroke-dasharray:none;stroke-opacity:1"
         id="path41"
         sodipodi:nodetypes="ccccssccc" />
      <path
         d="m 535.24395,462.10463 -0.21334,98.92994 c -0.12892,59.6901 0.0939,99.12323 0.56126,99.41878 0.7059,0.44635 31.8561,0.65967 34.31739,0.23505 0.83941,-0.14479 1.01039,-20.38334 0.84025,-99.38301 l -0.21499,-99.20076 h -17.64528 z"
         style="fill:#04c755;fill-opacity:1;stroke:#000000;stroke-width:1.00017;stroke-dasharray:none;stroke-opacity:1"
         id="path44"
         sodipodi:nodetypes="ccsscccc" />
      <path
         style="fill:#e91700;fill-opacity:1;stroke:#000000;stroke-width:1.00017;stroke-dasharray:none;stroke-opacity:1"
         d="m 369.23215,632.71599 c -0.0344,-15.27323 -0.16059,-60.93908 -0.28033,-101.47967 -0.11976,-40.54059 0.0301,-74.18728 0.33285,-74.77041 0.36743,-0.70753 6.54034,-0.97028 18.55582,-0.78983 l 18.00523,0.27041 v 102 102 l -18.27548,0.2695 -18.27547,0.2695 z"
         id="path36"
         sodipodi:nodetypes="sssscccccs" />
      <path
         style="fill:#0210d6;fill-opacity:1;stroke:#000000;stroke-width:1.00017;stroke-dasharray:none;stroke-opacity:1"
         d="m 593.88771,624.44976 c -0.0344,-19.84982 -0.16059,-79.19935 -0.28033,-131.88785 -0.11976,-52.6885 0.0301,-96.41736 0.33285,-97.17522 0.36743,-0.91954 6.54034,-1.26102 18.55582,-1.0265 l 18.00523,0.35144 v 132.5641 132.5641 l -18.27548,0.35025 -18.27548,0.35026 z"
         id="path36-3"
         sodipodi:nodetypes="sssscccccs" />
      <path
         style="fill:#8601bb;fill-opacity:1;stroke:#000000;stroke-width:1.00017;stroke-dasharray:none;stroke-opacity:1"
         d="m 646.17165,637.32037 c -0.0344,-12.06961 -0.16059,-48.15688 -0.28033,-80.19394 -0.11976,-32.03705 0.0301,-58.62623 0.33285,-59.08704 0.36743,-0.55912 6.54034,-0.76676 18.55582,-0.62416 l 18.00523,0.21369 v 80.60513 80.60513 l -18.27548,0.21297 -18.27548,0.21297 z"
         id="path54"
         sodipodi:nodetypes="sssscccccs" />
    </g>
  </g>
</svg>
