<?xml version="1.0" encoding="UTF-8" standalone="no"?>
<!-- Created with Inkscape (http://www.inkscape.org/) -->

<svg
   version="1.1"
   id="svg1"
   width="192"
   height="191.92572"
   viewBox="0 0 192 191.92572"
   xmlns="http://www.w3.org/2000/svg"
   xmlns:svg="http://www.w3.org/2000/svg">
  <defs
     id="defs1" />
  <g
     id="g1"
     transform="translate(-110.89618,-91.830884)">
    <g
       id="g55"
       transform="matrix(0.22722979,0,0,0.22869341,85.704047,70.821087)">
      <path
         style="fill:#6d59cf;stroke:#000000;stroke-width:1.5;stroke-dasharray:none;stroke-opacity:1"
         d="m 300.56956,929.4974 c -56.59081,-1.4735 -86.95746,-9.1033 -117.75153,-29.5856 -11.85269,-7.8836 -32.17294,-28.1568 -39.99658,-39.9039 -19.18806,-28.8106 -27.85276,-58.6719 -30.24977,-104.2502 -1.26275,-24.0106 -1.2787,-449.28382 -0.0181,-481.21034 1.31992,-33.42768 3.85722,-49.82312 11.03227,-71.288 17.49171,-52.32825 57.82273,-89.22156 112.1989,-102.63535 17.02688,-4.20028 33.18686,-6.05948 61.78477,-7.10835 33.27394,-1.22036 454.93997,-1.18429 481.14918,0.0412 40.2481,1.88186 64.31372,7.24972 89.28436,19.91496 15.67684,7.95138 26.29212,15.69351 39.10757,28.52266 21.00094,21.0234 33.21293,42.81226 40.94391,73.05292 7.50099,29.34101 7.01498,8.90282 7.01498,295 0,241.3381 -0.1037,256.7888 -1.81065,269.7734 -7.18965,54.6911 -30.26476,94.4571 -70.18935,120.9593 -30.18368,20.0362 -56.6622,26.8973 -111,28.7623 -31.83677,1.0927 -429.26137,1.0548 -471.5,-0.045 z m 262,-127.048 c 14.73134,-1.393 37.23332,-6.0829 52.22885,-10.8856 42.76556,-13.6967 79.63289,-35.9892 110.83184,-67.0164 20.82071,-20.7062 35.5477,-40.54 48.43613,-65.2323 20.45227,-39.1834 29.89362,-75.2946 31.18282,-119.2677 1.35331,-46.1599 -7.33655,-86.7081 -27.11012,-126.5 -9.02458,-18.1609 -16.90592,-30.4754 -32.90263,-51.4098 -0.52772,-0.6906 4.10868,-6.0389 12.64828,-14.5902 10.72648,-10.7413 13.73886,-14.3685 14.74139,-17.75 2.26772,-7.64903 0.85611,-9.93088 -17.27393,-27.92321 -23.18133,-23.00524 -23.60688,-23.01823 -45.9926,-1.40354 l -14.39388,13.89811 -11.18216,-7.26914 c -31.03607,-20.17548 -69.48671,-35.21329 -103.71399,-40.56191 -12.88583,-2.01364 -11.5,-0.27646 -11.5,-14.41564 v -12.38718 l 14.25,-0.34377 c 13.63012,-0.32881 14.484,-0.47336 19.62926,-3.32305 13.63973,-7.55431 18.59316,-23.85913 11.59433,-38.16421 -2.76891,-5.65946 -6.32576,-9.16019 -12.85712,-12.6543 l -4.11647,-2.2022 h -63.5 -63.5 l -4.11647,2.2022 c -6.32557,3.38401 -9.70291,6.64001 -12.92958,12.46508 -2.58138,4.66012 -2.95395,6.34173 -2.95395,13.33272 0,6.99098 0.37257,8.6726 2.95395,13.33272 3.22971,5.83054 6.61415,9.09112 12.92958,12.4564 3.49204,1.86079 6.24011,2.27069 18.11647,2.7022 l 14,0.50868 0.28078,12.25 c 0.15442,6.7375 0.15442,12.2524 0,12.25533 -2.25061,0.0427 -26.06319,4.52575 -32.1472,6.05216 -18.72025,4.69669 -40.27811,12.70762 -57.28275,21.28633 -9.76765,4.92771 -28.78832,16.28837 -33.67839,20.11543 l -3.12942,2.44913 -14.57287,-14.37161 c -15.65452,-15.43832 -17.58934,-16.57154 -25.72015,-15.06412 -3.12845,0.58 -6.44752,3.37226 -20.02476,16.84636 -17.983,17.8464 -19.29189,19.97595 -17.16722,27.93103 0.92103,3.4484 3.63769,6.796 14.40463,17.75 l 13.26952,13.5 -7.44824,10 c -28.38483,38.1094 -44.40913,78.1444 -51.43307,128.5 -2.00032,14.3406 -1.69263,54.2831 0.54308,70.5 12.78721,92.7521 76.16423,174.9458 163.74062,212.3553 42.73394,18.2544 85.9263,24.6746 134.86544,20.0467 z m -42,-46.0437 c -107.81101,-5.1238 -198.4507,-90.912 -211.04131,-199.7454 -1.7512,-15.1373 -0.75896,-48.4673 1.87887,-63.1129 16.20209,-89.9563 87.38445,-161.8175 177.66244,-179.35672 76.68287,-14.89796 153.58556,8.81112 207.58193,63.99742 34.66139,35.4253 53.97344,75.4141 61.02354,126.3593 1.77101,12.7976 1.45772,45.3268 -0.56341,58.5 -6.11847,39.8783 -19.94052,72.9483 -43.72118,104.6052 -34.47603,45.8947 -87.30706,77.494 -145.32088,86.9195 -10.54042,1.7125 -32.34122,2.5541 -47.5,1.8336 z"
         id="path38" />
      <g
         id="g54"
         transform="translate(6.1387247,7.6734059)">
        <path
           d="m 426.43135,426.40663 v 116.85352 c 0,64.26928 0.26048,117.16155 0.57767,117.53906 0.31721,0.37747 8.35212,0.56632 17.85535,0.41797 l 17.27768,-0.27149 v -117 -117 l -17.85535,-0.26953 z"
           style="fill:#ff9d00;fill-opacity:1;stroke:#000000;stroke-width:1.5;stroke-dasharray:none;stroke-opacity:1"
           id="path42" />
        <path
           d="m 481.46784,360.51481 -0.21334,149.35282 -0.2117,149.35061 3.57271,0.34865 c 1.96578,0.19119 9.68554,0.449 17.15458,0.57373 11.13672,0.18598 13.66345,-0.0645 14.04304,-1.3946 0.60531,-99.40628 0.22494,-198.82198 0.10503,-298.23121 H 498.693 Z"
           style="fill:#b0b305;fill-opacity:1;stroke:#000000;stroke-width:1.5;stroke-dasharray:none;stroke-opacity:1"
           id="path41" />
        <path
           d="m 535.24395,462.10463 -0.21334,98.92994 c -0.12892,59.6901 0.0939,99.12323 0.56126,99.41878 0.7059,0.44635 31.8561,0.65967 34.31739,0.23505 0.83941,-0.14479 1.01039,-20.38334 0.84025,-99.38301 l -0.21499,-99.20076 h -17.64528 z"
           style="fill:#04c755;fill-opacity:1;stroke:#000000;stroke-width:1.5;stroke-dasharray:none;stroke-opacity:1"
           id="path44" />
        <path
           style="fill:#e91700;fill-opacity:1;stroke:#000000;stroke-width:1.5;stroke-dasharray:none;stroke-opacity:1"
           d="m 369.23215,632.71599 c -0.0344,-15.27323 -0.16059,-60.93908 -0.28033,-101.47967 -0.11976,-40.54059 0.0301,-74.18728 0.33285,-74.77041 0.36743,-0.70753 6.54034,-0.97028 18.55582,-0.78983 l 18.00523,0.27041 v 102 102 l -18.27548,0.2695 -18.27547,0.2695 z"
           id="path36" />
        <path
           style="fill:#0210d6;fill-opacity:1;stroke:#000000;stroke-width:1.5;stroke-dasharray:none;stroke-opacity:1"
           d="m 593.88771,624.44976 c -0.0344,-19.84982 -0.16059,-79.19935 -0.28033,-131.88785 -0.11976,-52.6885 0.0301,-96.41736 0.33285,-97.17522 0.36743,-0.91954 6.54034,-1.26102 18.55582,-1.0265 l 18.00523,0.35144 v 132.5641 132.5641 l -18.27548,0.35025 -18.27548,0.35026 z"
           id="path36-3" />
        <path
           style="fill:#8601bb;fill-opacity:1;stroke:#000000;stroke-width:1.5;stroke-dasharray:none;stroke-opacity:1"
           d="m 646.17165,637.32037 c -0.0344,-12.06961 -0.16059,-48.15688 -0.28033,-80.19394 -0.11976,-32.03705 0.0301,-58.62623 0.33285,-59.08704 0.36743,-0.55912 6.54034,-0.76676 18.55582,-0.62416 l 18.00523,0.21369 v 80.60513 80.60513 l -18.27548,0.21297 -18.27548,0.21297 z"
           id="path54" />
      </g>
    </g>
  </g>
</svg>
