<?xml version="1.0" encoding="UTF-8" standalone="no"?>
<!-- Created with Inkscape (http://www.inkscape.org/) -->

<svg
   version="1.1"
   id="svg1"
   width="512"
   height="512"
   viewBox="0 0 512.00001 512.00001"
   xmlns="http://www.w3.org/2000/svg"
   xmlns:svg="http://www.w3.org/2000/svg">
  <defs
     id="defs1" />
  <g
     id="g1">
    <rect
       style="fill:#ffffff;fill-opacity:1;stroke:#000000;stroke-width:0.498619;stroke-linecap:round;stroke-linejoin:round;stroke-dasharray:none;stroke-opacity:1"
       id="rect55"
       width="419.89026"
       height="419.89026"
       x="46.266865"
       y="39.842865" />
    <path
       style="fill:#6d59cf;fill-opacity:1;stroke:#000000;stroke-width:0.607276;stroke-dasharray:none;stroke-opacity:1"
       d="M 115.11722,510.52478 C 80.866929,509.62723 62.488194,504.97971 43.850779,492.50343 36.677217,487.70132 24.378835,475.35239 19.643764,468.19694 8.0306212,450.64764 2.7865018,432.45836 1.3357712,404.69544 0.57150541,390.06998 0.56186353,131.02508 1.3251172,111.57783 2.1239819,91.216167 3.659625,81.22928 8.0021483,68.154459 18.588617,36.27999 42.998058,13.807316 75.908018,5.6366316 86.213141,3.0781338 95.993607,1.9456466 113.30185,1.306752 c 20.1383,-0.74335198 275.34213,-0.72138074 291.20466,0.025037 24.35926,1.1462895 38.92444,4.4159934 54.03735,12.130715 9.48806,4.843392 15.9127,9.559336 23.66896,17.373897 12.71034,12.805886 20.10138,26.078046 24.78038,44.498412 4.53981,17.872377 4.24566,5.422947 4.24566,179.692107 0,147.00525 -0.0629,156.41666 -1.09585,164.32591 -4.35137,33.31377 -18.31707,57.53626 -42.48051,73.67944 -18.26799,12.20457 -34.29352,16.38383 -67.18026,17.51986 -19.26847,0.66559 -259.80074,0.64249 -285.3647,-0.0274 z m 158.56959,-77.38821 c 8.91581,-0.84851 22.53463,-3.70525 31.61033,-6.63071 25.88289,-8.343 48.19602,-21.92194 67.07848,-40.82142 12.60125,-12.61268 21.51443,-24.69396 29.31487,-39.73466 12.37826,-23.86763 18.09244,-45.86388 18.87268,-72.64904 0.81908,-28.11719 -4.44027,-52.81613 -16.40777,-77.05441 -5.46194,-11.06228 -10.23193,-18.56335 -19.91358,-31.31503 -0.31938,-0.42068 2.48668,-3.67846 7.6551,-8.88726 6.49194,-6.54282 8.31511,-8.75222 8.92189,-10.81199 1.37247,-4.65921 0.51813,-6.04916 -10.45466,-17.00876 -14.02998,-14.01307 -14.28754,-14.02098 -27.83598,-0.85493 l -8.71158,8.4657 -6.76775,-4.4278 c -18.78388,-12.28941 -42.05526,-21.44933 -62.77055,-24.70733 -7.79885,-1.22654 -6.96011,-0.16833 -6.96011,-8.780934 v -7.545334 l 8.62448,-0.209351 c 8.24932,-0.200296 8.76612,-0.288351 11.88018,-2.024156 8.25513,-4.601523 11.25309,-14.533222 7.01719,-23.246795 -1.67582,-3.447347 -3.82852,-5.579721 -7.78148,-7.708074 l -2.49139,-1.34142 h -38.43193 -38.43196 l -2.49139,1.34142 c -3.82842,2.061286 -5.87247,4.044611 -7.82535,7.592797 -1.56231,2.838603 -1.7878,3.862907 -1.7878,8.121316 0,4.258384 0.2256,5.282687 1.7878,8.12129 1.95472,3.551542 4.00309,5.537637 7.82535,7.587523 2.11349,1.133454 3.77669,1.383131 10.96458,1.645966 l 8.47319,0.309872 0.16993,7.461779 c 0.0935,4.103981 0.0935,7.463241 0,7.465031 -1.36214,0.0266 -15.77415,2.75675 -19.45636,3.68653 -11.33002,2.86087 -24.37743,7.74054 -34.6691,12.96607 -5.91165,3.00158 -17.42347,9.92165 -20.38308,12.25281 l -1.89401,1.49182 -8.8199,-8.75411 c -9.47454,-9.40387 -10.64555,-10.09414 -15.56653,-9.17593 -1.89343,0.35329 -3.90222,2.05412 -12.11956,10.26155 -10.88379,10.87069 -11.67597,12.16785 -10.39006,17.0135 0.55745,2.10052 2.20163,4.13962 8.71808,10.81199 l 8.03107,8.2232 -4.50787,6.09124 c -17.17928,23.21342 -26.877631,47.59977 -31.128717,78.27268 -1.210642,8.73523 -1.02441,33.06522 0.328703,42.94336 7.739154,56.49768 46.096674,106.56399 99.100294,129.35109 25.86377,11.11922 52.00496,15.02993 81.62427,12.21096 z m -25.41955,-28.0464 c -65.25017,-3.12104 -120.1078,-55.37686 -127.72797,-121.67008 -1.05989,-9.22052 -0.45935,-29.52268 1.13713,-38.44371 9.80595,-54.79469 52.88746,-98.56719 107.52618,-109.2508 46.41056,-9.07472 92.95417,5.36709 125.63427,38.98248 20.97803,21.57848 32.6662,45.93668 36.93311,76.96871 1.07187,7.79536 0.88226,27.60972 -0.34098,35.63387 -3.70307,24.29089 -12.06855,44.43468 -26.46125,63.71772 -20.86583,27.95563 -52.84064,47.20358 -87.9522,52.94489 -6.37933,1.04314 -19.57377,1.55578 -28.74829,1.11692 z"
       id="path38" />
    <g
       id="g54"
       transform="matrix(0.60522741,0,0,0.60912577,-63.080381,-50.981977)"
       style="stroke-width:1.00017;stroke-dasharray:none">
      <path
         d="m 426.43135,426.40663 v 116.85352 c 0,64.26928 0.26048,117.16155 0.57767,117.53906 0.31721,0.37747 8.35212,0.56632 17.85535,0.41797 l 17.27768,-0.27149 v -117 -117 l -17.85535,-0.26953 z"
         style="fill:#ff9d00;fill-opacity:1;stroke:#000000;stroke-width:1.00017;stroke-dasharray:none;stroke-opacity:1"
         id="path42" />
      <path
         d="m 481.46784,360.51481 -0.21334,149.35282 -0.2117,149.35061 3.57271,0.34865 c 1.96578,0.19119 9.68554,0.449 17.15458,0.57373 11.13672,0.18598 13.66345,-0.0645 14.04304,-1.3946 0.60531,-99.40628 0.22494,-198.82198 0.10503,-298.23121 H 498.693 Z"
         style="fill:#b0b305;fill-opacity:1;stroke:#000000;stroke-width:1.00017;stroke-dasharray:none;stroke-opacity:1"
         id="path41" />
      <path
         d="m 535.24395,462.10463 -0.21334,98.92994 c -0.12892,59.6901 0.0939,99.12323 0.56126,99.41878 0.7059,0.44635 31.8561,0.65967 34.31739,0.23505 0.83941,-0.14479 1.01039,-20.38334 0.84025,-99.38301 l -0.21499,-99.20076 h -17.64528 z"
         style="fill:#04c755;fill-opacity:1;stroke:#000000;stroke-width:1.00017;stroke-dasharray:none;stroke-opacity:1"
         id="path44" />
      <path
         style="fill:#e91700;fill-opacity:1;stroke:#000000;stroke-width:1.00017;stroke-dasharray:none;stroke-opacity:1"
         d="m 369.23215,632.71599 c -0.0344,-15.27323 -0.16059,-60.93908 -0.28033,-101.47967 -0.11976,-40.54059 0.0301,-74.18728 0.33285,-74.77041 0.36743,-0.70753 6.54034,-0.97028 18.55582,-0.78983 l 18.00523,0.27041 v 102 102 l -18.27548,0.2695 -18.27547,0.2695 z"
         id="path36" />
      <path
         style="fill:#0210d6;fill-opacity:1;stroke:#000000;stroke-width:1.00017;stroke-dasharray:none;stroke-opacity:1"
         d="m 593.88771,624.44976 c -0.0344,-19.84982 -0.16059,-79.19935 -0.28033,-131.88785 -0.11976,-52.6885 0.0301,-96.41736 0.33285,-97.17522 0.36743,-0.91954 6.54034,-1.26102 18.55582,-1.0265 l 18.00523,0.35144 v 132.5641 132.5641 l -18.27548,0.35025 -18.27548,0.35026 z"
         id="path36-3" />
      <path
         style="fill:#8601bb;fill-opacity:1;stroke:#000000;stroke-width:1.00017;stroke-dasharray:none;stroke-opacity:1"
         d="m 646.17165,637.32037 c -0.0344,-12.06961 -0.16059,-48.15688 -0.28033,-80.19394 -0.11976,-32.03705 0.0301,-58.62623 0.33285,-59.08704 0.36743,-0.55912 6.54034,-0.76676 18.55582,-0.62416 l 18.00523,0.21369 v 80.60513 80.60513 l -18.27548,0.21297 -18.27548,0.21297 z"
         id="path54" />
    </g>
  </g>
</svg>
